<svg width="48" height="48" viewBox="0 0 48 48" fill="none" xmlns="http://www.w3.org/2000/svg">
<path d="M41.2375 7.20703H37.9285V5.0387H38.8019C39.4702 5.0387 40.0144 4.49487 40.0144 3.82617V1.21252C40.0144 0.543823 39.4706 0 38.8019 0H9.21497C8.54626 0 8.00244 0.543823 8.00244 1.21252V3.82617C8.00244 4.49487 8.54626 5.0387 9.21497 5.0387H10.088V7.20703H6.77893C4.69519 7.20703 3 8.90222 3 10.986V11.7656C3 12.1542 3.31458 12.4688 3.70312 12.4688C4.09167 12.4688 4.40625 12.1542 4.40625 11.7656V10.986C4.40625 9.67749 5.47083 8.61328 6.77893 8.61328H10.0679V10.7659H8.23828C7.36121 10.7659 6.64783 11.4792 6.64783 12.3563V17.714C6.64783 18.3732 7.04407 18.9543 7.65784 19.1949L10.934 20.4789C11.324 21.5098 11.84 22.4795 12.4633 23.3687L5.92017 20.8282C5.00061 20.4712 4.40625 19.6029 4.40625 18.6163V15.8906C4.40625 15.5024 4.09167 15.1875 3.70312 15.1875C3.31494 15.1875 3 15.5024 3 15.8906V18.6163C3 20.1877 3.94666 21.5706 5.4115 22.1389L14.5228 25.6765C16.144 27.1146 18.1223 28.158 20.3057 28.6571C19.9479 30.4633 19.3601 32.7689 18.7815 33.72H14.4902C13.563 33.72 12.8086 34.4744 12.8086 35.4016V46.318C12.8086 47.2456 13.563 48 14.4902 48H16.9772C17.3657 48 17.6803 47.6851 17.6803 47.2969C17.6803 46.9087 17.3657 46.5938 16.9772 46.5938H14.4902C14.3383 46.5938 14.2148 46.47 14.2148 46.318V35.4016C14.2148 35.25 14.3383 35.1262 14.4902 35.1262H33.5266C33.6786 35.1262 33.802 35.25 33.802 35.4016V46.318C33.802 46.47 33.6786 46.5938 33.5266 46.5938H21.3834C20.9949 46.5938 20.6803 46.9087 20.6803 47.2969C20.6803 47.6851 20.9949 48 21.3834 48H33.5266C34.4539 48 35.2083 47.2456 35.2083 46.318V35.4016C35.2083 34.4744 34.4539 33.72 33.5266 33.72H29.2354C28.6575 32.7693 28.0693 30.4633 27.7115 28.6571C29.8945 28.158 31.8728 27.1146 33.494 25.6765L42.6053 22.1389C44.0702 21.5706 45.0168 20.1877 45.0168 18.6163V10.986C45.0168 8.90222 43.3213 7.20703 41.2375 7.20703ZM8.1709 17.8857C8.09985 17.8579 8.05408 17.7905 8.05408 17.714V12.3563C8.05408 12.2545 8.13647 12.1721 8.23828 12.1721H10.088V15.8401C10.088 16.8457 10.2019 17.8246 10.4165 18.7657L8.1709 17.8857ZM9.40869 3.63245V1.40625H38.6082V3.63245H9.40869ZM39.7786 12.1721C39.88 12.1721 39.9628 12.2545 39.9628 12.3563V17.714C39.9628 17.7905 39.917 17.8579 39.8459 17.8857L37.6 18.7657C37.8146 17.8246 37.9285 16.8453 37.9285 15.8401V12.1718H39.7786V12.1721ZM20.3441 33.72C20.9685 32.2775 21.4417 30.1659 21.691 28.897C22.1975 28.9567 22.7128 28.9871 23.2354 28.9871H24.7815C25.3044 28.9871 25.8204 28.9563 26.3276 28.8966C26.4287 29.4064 26.5671 30.0597 26.7367 30.7533C27.0432 32.0068 27.3512 32.9905 27.6672 33.72H20.3441ZM24.7815 27.5808H23.2354C16.7611 27.5808 11.4943 22.314 11.4943 15.8401V5.0387H36.5222V15.8401C36.5222 22.314 31.2554 27.5808 24.7815 27.5808ZM43.6106 18.6163C43.6106 19.6029 43.0162 20.4712 42.0967 20.8282L35.5532 23.3687C36.1769 22.4791 36.6925 21.5098 37.0829 20.4789L40.359 19.1949C40.9724 18.9543 41.369 18.3732 41.369 17.714V12.3563C41.369 11.4792 40.6556 10.7659 39.7786 10.7659H37.9486V8.61328H41.2375C42.546 8.61328 43.6106 9.67749 43.6106 10.986V18.6163Z" fill="white"/>
<path d="M28.9464 12.2479L26.3522 11.8707L25.192 9.52002C24.9679 9.06628 24.5141 8.7843 24.0084 8.7843C23.5023 8.7843 23.0489 9.06628 22.8248 9.52002L21.6647 11.8707L19.0704 12.2479C18.5698 12.3204 18.1615 12.6647 18.0051 13.1459C17.8487 13.6271 17.9766 14.1456 18.3391 14.499L20.2163 16.3286L19.7732 18.9126C19.6875 19.4114 19.8885 19.9058 20.298 20.2035C20.7074 20.5009 21.2402 20.5393 21.6881 20.3038L24.0084 19.084L26.3287 20.3038C26.5235 20.4064 26.7345 20.4569 26.944 20.4569C27.2164 20.4569 27.487 20.3716 27.7185 20.2035C28.1279 19.9061 28.3293 19.4114 28.2436 18.9126L27.8005 16.329L29.6777 14.499C30.0399 14.146 30.1677 13.6274 30.0117 13.1462C29.8553 12.6647 29.447 12.3204 28.9464 12.2479ZM26.7861 15.3534C26.4752 15.6566 26.3335 16.0935 26.4067 16.5216L26.8279 18.9774L24.6225 17.818C24.4303 17.7169 24.2193 17.6664 24.0084 17.6664C23.7975 17.6664 23.5865 17.7169 23.3943 17.818L21.1886 18.9774L21.6097 16.5216C21.6833 16.0935 21.5416 15.6566 21.2303 15.3534L19.4462 13.6143L21.9119 13.2557C22.3418 13.1935 22.7135 12.9236 22.9057 12.5339L24.0084 10.2997L25.1111 12.5339C25.3033 12.9236 25.675 13.1935 26.105 13.2561L28.571 13.6143L26.7861 15.3534Z" fill="white"/>
</svg>
