<svg width="48" height="48" viewBox="0 0 48 48" fill="none" xmlns="http://www.w3.org/2000/svg">
<g clip-path="url(#clip0)">
<path d="M16.0006 28.0006C16.8845 28.0006 17.6005 28.717 17.6005 29.6005C17.6005 30.0423 17.9587 30.4005 18.4005 30.4005C18.8423 30.4005 19.2005 30.0423 19.2005 29.6005C19.195 28.1459 18.2091 26.878 16.8006 26.5143V25.6006C16.8006 25.1589 16.4424 24.8007 16.0006 24.8007C15.5588 24.8007 15.2006 25.1589 15.2006 25.6006V26.5143C13.642 26.9155 12.6257 28.4135 12.8288 30.0099C13.0319 31.6064 14.3912 32.8024 16.0006 32.8005C16.8845 32.8005 17.6005 33.5169 17.6005 34.4004C17.6005 35.284 16.8845 36.0004 16.0006 36.0004C15.117 36.0004 14.4006 35.284 14.4006 34.4004C14.4006 33.9587 14.0424 33.6005 13.6006 33.6005C13.1589 33.6005 12.8007 33.9587 12.8007 34.4004C12.8061 35.8551 13.7924 37.123 15.2006 37.4867V38.4003C15.2006 38.8421 15.5588 39.2003 16.0006 39.2003C16.4424 39.2003 16.8006 38.8421 16.8006 38.4003V37.489C18.3642 37.0918 19.3857 35.591 19.1822 33.9911C18.9786 32.3907 17.6138 31.1935 16.0006 31.2005C15.117 31.2005 14.4006 30.4841 14.4006 29.6005C14.4006 28.717 15.117 28.0006 16.0006 28.0006Z" fill="white"/>
<path d="M18.4005 20.0007H13.6006C13.1589 20.0007 12.8007 20.3589 12.8007 20.8007C12.8007 21.2425 13.1589 21.6007 13.6006 21.6007H18.4005C18.8423 21.6007 19.2005 21.2425 19.2005 20.8007C19.2005 20.3589 18.8423 20.0007 18.4005 20.0007Z" fill="white"/>
<path d="M18.4005 42.4001H13.6006C13.1589 42.4001 12.8007 42.7583 12.8007 43.2001C12.8007 43.6419 13.1589 44.0001 13.6006 44.0001H18.4005C18.8423 44.0001 19.2005 43.6419 19.2005 43.2001C19.2005 42.7583 18.8423 42.4001 18.4005 42.4001Z" fill="white"/>
<path d="M43.8344 30.8004L32.0901 10.4607C32.8127 9.74387 33.4522 8.94741 33.9955 8.08649C35.3291 5.92638 35.5674 3.87604 34.6658 2.31474C32.8717 -0.793388 27.2055 -0.768388 21.7661 2.37138C21.0439 2.79442 20.3494 3.26277 19.6865 3.7737L19.0408 3.0409C18.2709 2.16904 17.1639 1.66906 16.0006 1.66827C14.8378 1.66906 13.7308 2.16904 12.9609 3.0409L4.21536 12.9512C3.56147 13.6918 3.20054 14.6461 3.20093 15.6344V40.8002C3.20562 44.7747 6.42624 47.9957 10.4008 48H21.6005C25.575 47.9957 28.796 44.7747 28.8003 40.8002V15.6344C28.7988 14.8637 28.5765 14.1094 28.1605 13.4606H28.1668C29.1234 12.9075 30.0312 12.2743 30.8804 11.5681L42.4488 31.6004C43.9965 34.2789 43.0793 37.7046 40.4001 39.2514L30.7011 44.8513C30.2745 45.095 29.8171 45.2813 29.3413 45.4048C28.9144 45.5185 28.6601 45.9567 28.7738 46.3837C28.8871 46.8106 29.3253 47.0649 29.7527 46.9512C30.3628 46.7907 30.9495 46.5505 31.4972 46.2368L41.1961 40.6369C44.6418 38.6499 45.8234 34.2453 43.8344 30.8004ZM27.2004 40.8002C27.1969 43.8915 24.6918 46.3966 21.6005 46.4001H10.4008C7.30982 46.3966 4.80441 43.8915 4.80089 40.8002V15.6344C4.80089 15.0359 5.01925 14.4582 5.41533 14.0094L14.1608 4.10025C14.6264 3.57175 15.2964 3.26863 16.0006 3.26824C16.7049 3.26863 17.3752 3.57175 17.8408 4.10025L25.643 12.9422C23.8594 13.7836 21.9103 14.216 19.9384 14.2078C19.9748 14.0074 19.9955 13.8043 20.0005 13.6008C19.9982 11.3927 18.2088 9.60364 16.0006 9.60091C15.9127 9.60364 15.826 9.62122 15.744 9.65286C15.3409 9.60325 14.9659 9.86731 14.876 10.2634C14.5913 11.3567 14.7311 12.5172 15.2671 13.5118C15.7987 14.3922 16.6256 15.0551 17.6006 15.3816C16.8994 16.0215 15.8858 16.1851 15.0186 15.7992C14.1511 15.4129 13.5948 14.55 13.6007 13.6008C13.6007 13.159 13.2425 12.8008 12.8007 12.8008C12.3589 12.8008 12.0007 13.159 12.0007 13.6008C11.9988 15.3742 13.1659 16.9367 14.8675 17.4374C16.5686 17.9382 18.3963 17.2574 19.3552 15.7656C19.6701 15.7988 19.9865 15.8164 20.3033 15.8176C22.5364 15.75 24.7286 15.198 26.7277 14.2C27.0328 14.6164 27.198 15.1184 27.2004 15.6344V40.8002ZM18.4006 13.6008C18.3975 13.718 18.3857 13.8348 18.3654 13.9504C17.6596 13.7668 17.0483 13.325 16.653 12.7118C16.4061 12.2614 16.3002 11.7473 16.3487 11.236C17.5236 11.4083 18.3959 12.4133 18.4006 13.6008ZM27.366 12.068C27.2863 12.1145 27.2062 12.1544 27.1262 12.1993L20.7501 4.97289C21.3306 4.53266 21.9372 4.12798 22.5661 3.76081C27.0726 1.15774 31.9796 0.863606 33.2795 3.12098C33.874 4.14908 33.6444 5.61701 32.6338 7.25291C32.2342 7.88766 31.7737 8.48179 31.2581 9.02631L31.2499 9.01186C30.7565 8.15602 29.9667 7.50994 29.03 7.1951L25.8973 6.13614C25.4832 6.00997 25.0438 6.23614 24.9059 6.64629C24.7676 7.05682 24.9813 7.50252 25.3879 7.65212L28.5207 8.70562C29.0874 8.89663 29.5652 9.28763 29.8644 9.80559L30.0683 10.1583C29.2288 10.8782 28.3242 11.5181 27.366 12.0704V12.068Z" fill="white"/>
<path d="M30.5077 32.2461C30.7284 32.6285 31.2178 32.7598 31.6002 32.5387L37.1427 29.3388C37.3923 29.197 37.5466 28.9321 37.5473 28.645C37.5477 28.3579 37.3946 28.0927 37.1458 27.9497C36.8966 27.8068 36.5903 27.8079 36.3427 27.9533L30.8002 31.1532C30.4178 31.3743 30.2866 31.8633 30.5077 32.2461Z" fill="white"/>
<path d="M31.5205 37.2003C31.7408 37.5831 32.2302 37.7148 32.613 37.4937L39.541 33.4938C39.9238 33.2731 40.0551 32.7836 39.834 32.4008C39.6133 32.018 39.1238 31.8868 38.741 32.1075L31.8131 36.1074C31.4307 36.3285 31.2994 36.8175 31.5205 37.2003Z" fill="white"/>
<path d="M31.9725 27.5822C32.1127 27.5822 32.2506 27.5451 32.3725 27.4747L35.1435 25.8748C35.3931 25.733 35.5474 25.4681 35.5482 25.181C35.5486 24.8943 35.3955 24.6287 35.1466 24.4857C34.8978 24.3428 34.5912 24.344 34.3435 24.4893L31.5725 26.0892C31.2588 26.2705 31.1061 26.6392 31.1998 26.9892C31.2936 27.3388 31.6104 27.5822 31.9725 27.5822Z" fill="white"/>
</g>
<defs>
<clipPath id="clip0">
<rect width="48" height="48" fill="white"/>
</clipPath>
</defs>
</svg>
