<svg width="40" height="40" viewBox="0 0 40 40" fill="none" xmlns="http://www.w3.org/2000/svg">
<g clip-path="url(#clip0)">
<path d="M24.7136 35.7899C23.1554 36.0449 21.5789 36.1711 20 36.1671C16.7927 36.237 13.605 35.6503 10.6328 34.4431L10.0576 35.6968C13.2078 36.9957 16.5935 37.6256 20 37.5464C21.6551 37.5503 23.3078 37.4179 24.9412 37.1505L24.7136 35.7899Z" fill="white"/>
<path d="M8.12453 32.6783L7.04871 33.5417C7.48809 34.0696 8.00746 34.5255 8.58796 34.8927L9.34655 33.7396C8.88674 33.4512 8.47451 33.0932 8.12453 32.6783Z" fill="white"/>
<path d="M39.9275 13.1053C39.8607 12.9712 39.752 12.8625 39.618 12.7957V12.7923L20.3084 3.13749C20.1143 3.04051 19.8859 3.04051 19.6918 3.13749L0.38225 12.7923C0.0414015 12.9622 -0.0972138 13.3762 0.0726934 13.7172C0.139501 13.8512 0.248204 13.9599 0.38225 14.0267L7.5868 17.6287V28.5813C7.5868 32.0619 13.0397 34.788 20.0001 34.788C26.9605 34.788 32.4134 32.0619 32.4134 28.5813V17.6286L35.8616 15.9045V25.26C34.7878 25.636 34.2223 26.8113 34.5983 27.8851C34.7007 28.1772 34.8675 28.4425 35.0864 28.6612L33.8451 31.7735C33.7038 32.1272 33.8759 32.5285 34.2296 32.6698C34.3101 32.7019 34.3958 32.7186 34.4823 32.719H38.6201C39.0009 32.7192 39.3098 32.4105 39.31 32.0296C39.31 31.9419 39.2933 31.855 39.2607 31.7735L38.0194 28.6612C38.8237 27.8566 38.8233 26.5524 38.0187 25.7481C37.7994 25.5289 37.5336 25.3621 37.2408 25.26V15.2149L39.618 14.0301C39.9588 13.8602 40.0974 13.4461 39.9275 13.1053ZM31.0341 28.5812C31.0341 30.9129 26.6005 33.4086 20 33.4086C13.3996 33.4086 8.96597 30.9129 8.96597 28.5812V28.0116C11.0093 30.0039 15.1319 31.3398 20 31.3398C24.8681 31.3398 28.9907 30.0039 31.0341 28.0116V28.5812ZM31.0341 25.1331C31.0341 27.4647 26.6005 29.9605 20 29.9605C13.3996 29.9605 8.96597 27.4647 8.96597 25.1331V18.3182L19.6918 23.6849C19.8858 23.7819 20.1142 23.7819 20.3083 23.6849L31.0341 18.3182V25.1331ZM36.5511 26.5124C36.9319 26.5124 37.2407 26.8211 37.2407 27.202C37.2407 27.5828 36.9319 27.8916 36.5511 27.8916C36.1703 27.8916 35.8615 27.5828 35.8615 27.202C35.8615 26.8211 36.1703 26.5124 36.5511 26.5124ZM37.6014 31.3398H35.5008L36.3373 29.2495C36.4063 29.2564 36.4752 29.2709 36.5511 29.2709C36.627 29.2709 36.6939 29.2564 36.7649 29.2495L37.6014 31.3398ZM36.4215 14.0825L23.2744 12.7681C22.8427 11.9247 21.5862 11.3405 20 11.3405C18.0339 11.3405 16.5519 12.2302 16.5519 13.4094C16.5519 14.5887 18.0339 15.4783 20 15.4783C21.5248 15.4783 22.7489 14.9397 23.2261 14.1494L34.1105 15.2376L20 22.2932L2.23244 13.4094L20 4.52563L37.7676 13.4094L36.4215 14.0825ZM22.0689 13.4094C22.0689 13.5811 21.3351 14.099 20 14.099C18.6649 14.099 17.9311 13.5811 17.9311 13.4094C17.9311 13.2377 18.6649 12.7198 20 12.7198C21.3351 12.7198 22.0689 13.2377 22.0689 13.4094Z" fill="white"/>
<path d="M36.1693 8.3071L35.5525 9.54071L36.9317 10.2303L37.5485 8.99669L36.1693 8.3071Z" fill="white"/>
<path d="M24.4458 2.44779L23.829 3.6814L34.1734 8.85361L34.7902 7.62L24.4458 2.44779Z" fill="white"/>
</g>
<defs>
<clipPath id="clip0">
<rect width="40" height="40" fill="white"/>
</clipPath>
</defs>
</svg>
