<svg width="64" height="64" viewBox="0 0 64 64" fill="none" xmlns="http://www.w3.org/2000/svg">
<path d="M32 0C14.328 0 0 14.328 0 32C0 49.672 14.328 64 32 64C49.672 64 64 49.672 64 32C64 14.328 49.672 0 32 0ZM28.6599 31.4199C28.4119 35.524 26.5599 41.668 19.1479 47.648C18.7919 47.928 18.3759 48.068 17.9599 48.068C17.38 48.068 16.808 47.8039 16.4279 47.2919C15.772 46.412 15.9239 45.148 16.7719 44.468C22.8079 39.6 24.4599 34.832 24.7519 31.56C23.8959 32.048 22.9319 32.356 21.8879 32.356C18.6319 32.356 15.9958 29.616 15.9958 26.2361C15.9958 22.8561 18.6358 20.1161 21.8879 20.1161C22.6239 20.1161 23.2999 20.3082 23.9439 20.568L23.9239 20.5201L24.6039 20.8441L24.6639 20.8681L24.6959 20.8921L25.6278 21.5521L26.0358 21.9681C27.488 23.412 29.0839 26.168 28.6599 31.4199ZM48.056 31.416C47.8079 35.5201 45.956 41.6641 38.54 47.6441C38.1839 47.9281 37.768 48.0681 37.352 48.0681C36.7721 48.0681 36.2001 47.8001 35.82 47.288C35.164 46.404 35.3159 45.1441 36.1639 44.4641C42.2 39.5921 43.8519 34.8281 44.1439 31.5561C43.2919 32.0521 42.3279 32.356 41.28 32.356C38.028 32.356 35.3879 29.616 35.3879 26.2361C35.3879 22.8561 38.0199 20.1161 41.28 20.1161C42.02 20.1161 42.696 20.3082 43.34 20.568L43.3159 20.5201L43.9959 20.8441L44.0559 20.8681L44.0879 20.8921L45.0199 21.5521L45.4319 21.9681C46.8839 23.412 48.472 26.168 48.056 31.416Z" fill="#3ACC6C"/>
</svg>
