<svg width="19" height="15" viewBox="0 0 19 15" fill="none" xmlns="http://www.w3.org/2000/svg">
<path id="twi_red" fill-rule="evenodd" clip-rule="evenodd" d="M0.450195 12.9836C2.08914 14.0052 4.03493 14.6001 6.12692 14.6001C12.939 14.6001 16.6636 9.11741 16.6636 4.36325C16.6636 4.20739 16.66 4.05332 16.6528 3.89924C17.3766 3.39158 18.0047 2.75835 18.5002 2.03694C17.8369 2.32372 17.123 2.5161 16.3739 2.6016C17.1383 2.15896 17.724 1.4518 18.002 0.612832C17.2863 1.0243 16.493 1.32355 15.6501 1.48475C14.975 0.786504 14.0121 0.350098 12.9471 0.350098C10.902 0.350098 9.24325 1.95946 9.24325 3.94555C9.24325 4.22877 9.27665 4.50219 9.33982 4.76582C6.2623 4.61619 3.53223 3.18407 1.70738 1.00738C1.3888 1.53997 1.20559 2.15629 1.20559 2.81624C1.20559 4.064 1.859 5.16571 2.85265 5.81052C2.24527 5.7936 1.67489 5.63061 1.1749 5.36075C1.1749 5.37589 1.1749 5.39104 1.1749 5.40618C1.1749 7.14824 2.45284 8.60352 4.14503 8.93394C3.83547 9.01677 3.50787 9.05952 3.17033 9.05952C2.93117 9.05952 2.69923 9.03814 2.4736 8.99539C2.9438 10.4257 4.31199 11.466 5.93198 11.4936C4.66487 12.459 3.07015 13.0326 1.33374 13.0326C1.03502 13.0326 0.7408 13.0183 0.450195 12.9836Z" fill="white"/>
</svg>
