<svg width="24" height="13" viewBox="0 0 24 13" fill="none" xmlns="http://www.w3.org/2000/svg">
<path id="vk_red" fill-rule="evenodd" clip-rule="evenodd" d="M11.7555 12.5979H13.1185C13.1185 12.5979 13.5298 12.5551 13.74 12.3403C13.934 12.1423 13.9275 11.7716 13.9275 11.7716C13.9275 11.7716 13.901 10.0356 14.7495 9.77957C15.5859 9.52733 16.6607 11.4574 17.799 12.1996C18.6604 12.7615 19.3149 12.6384 19.3149 12.6384L22.3596 12.5979C22.3596 12.5979 23.952 12.5046 23.1969 11.316C23.1349 11.2189 22.7565 10.4362 20.9331 8.82867C19.0235 7.14626 19.2795 7.41838 21.5795 4.50759C22.9795 2.73574 23.5398 1.65337 23.3643 1.19015C23.1977 0.74833 22.168 0.865281 22.168 0.865281L18.7393 0.885156C18.7393 0.885156 18.4849 0.852287 18.2965 0.959301C18.113 1.06402 17.9946 1.30863 17.9946 1.30863C17.9946 1.30863 17.4512 2.67994 16.7283 3.84639C15.2019 6.30772 14.5909 6.43767 14.3413 6.28479C13.7609 5.92859 13.9058 4.85462 13.9058 4.091C13.9058 1.70534 14.2874 0.710875 13.1643 0.453276C12.7916 0.368429 12.5171 0.311865 11.5639 0.302692C10.341 0.290462 9.30574 0.30575 8.71966 0.578636C8.32921 0.759796 8.02812 1.16416 8.21168 1.18709C8.43789 1.21614 8.95152 1.31856 9.22362 1.67018C9.57462 2.12423 9.56255 3.14316 9.56255 3.14316C9.56255 3.14316 9.76462 5.95075 9.09079 6.30008C8.62869 6.53857 7.99512 6.05089 6.63378 3.81735C5.9366 2.67382 5.4101 1.40953 5.4101 1.40953C5.4101 1.40953 5.30867 1.17333 5.12753 1.04644C4.90775 0.893564 4.60103 0.844643 4.60103 0.844643L1.34299 0.865281C1.34299 0.865281 0.854326 0.878276 0.6748 1.08007C0.514595 1.25971 0.661919 1.6312 0.661919 1.6312C0.661919 1.6312 3.21232 7.29684 6.10003 10.1518C8.74864 12.7699 11.7555 12.5979 11.7555 12.5979Z" fill="#507299"/>
</svg>
