<svg width="24" height="13" viewBox="0 0 24 13" fill="none" xmlns="http://www.w3.org/2000/svg">
<path id="vk_red" fill-rule="evenodd" clip-rule="evenodd" d="M11.7555 12.598H13.1185C13.1185 12.598 13.5298 12.5552 13.74 12.3404C13.934 12.1424 13.9275 11.7717 13.9275 11.7717C13.9275 11.7717 13.901 10.0358 14.7495 9.7797C15.5859 9.52745 16.6607 11.4575 17.799 12.1997C18.6604 12.7616 19.3149 12.6385 19.3149 12.6385L22.3596 12.598C22.3596 12.598 23.952 12.5047 23.1969 11.3161C23.1349 11.219 22.7565 10.4363 20.9331 8.8288C19.0235 7.14638 19.2795 7.4185 21.5795 4.50771C22.9795 2.73586 23.5398 1.65349 23.3643 1.19027C23.1977 0.748452 22.168 0.865404 22.168 0.865404L18.7393 0.885278C18.7393 0.885278 18.4849 0.852409 18.2965 0.959423C18.113 1.06414 17.9946 1.30875 17.9946 1.30875C17.9946 1.30875 17.4512 2.68006 16.7283 3.84652C15.2019 6.30785 14.5909 6.43779 14.3413 6.28491C13.7609 5.92871 13.9058 4.85474 13.9058 4.09112C13.9058 1.70547 14.2874 0.710997 13.1643 0.453398C12.7916 0.368551 12.5171 0.311987 11.5639 0.302814C10.341 0.290584 9.30574 0.305872 8.71966 0.578758C8.32921 0.759918 8.02812 1.16428 8.21168 1.18721C8.43789 1.21626 8.95152 1.31869 9.22362 1.6703C9.57462 2.12435 9.56255 3.14328 9.56255 3.14328C9.56255 3.14328 9.76462 5.95088 9.09079 6.3002C8.62869 6.53869 7.99512 6.05101 6.63378 3.81747C5.9366 2.67395 5.4101 1.40965 5.4101 1.40965C5.4101 1.40965 5.30867 1.17345 5.12753 1.04656C4.90775 0.893686 4.60103 0.844765 4.60103 0.844765L1.34299 0.865404C1.34299 0.865404 0.854326 0.878398 0.6748 1.0802C0.514595 1.25983 0.661919 1.63132 0.661919 1.63132C0.661919 1.63132 3.21232 7.29696 6.10003 10.152C8.74864 12.77 11.7555 12.598 11.7555 12.598Z" fill="white"/>
</svg>
