<svg width="48" height="48" viewBox="0 0 48 48" fill="none" xmlns="http://www.w3.org/2000/svg">
<path d="M42.3246 18.9033L42.3169 18.8718C42.1925 18.3692 41.6843 18.0628 41.1818 18.1871C40.6793 18.3115 40.3726 18.8196 40.497 19.3223L40.5027 19.3451C40.6066 19.7741 40.9902 20.0618 41.4129 20.0618C41.486 20.0618 41.5604 20.0532 41.6345 20.0352C42.1376 19.9131 42.4467 19.4064 42.3246 18.9033Z" fill="white"/>
<path d="M17.502 30.5862C15.1713 29.1799 13.7799 26.7175 13.7799 23.9993C13.7799 23.1591 13.9144 22.3336 14.1796 21.5457C14.3448 21.0551 14.0809 20.5233 13.5903 20.3582C13.0997 20.1932 12.5681 20.4571 12.4029 20.9477C12.0727 21.9287 11.9053 22.9554 11.9053 23.9994C11.9053 27.3803 13.6355 30.4428 16.5335 32.1916C16.6851 32.283 16.852 32.3265 17.0169 32.3265C17.3345 32.3265 17.6443 32.1648 17.8203 31.8731C18.0878 31.4298 17.9453 30.8537 17.502 30.5862Z" fill="white"/>
<path d="M28.0203 17.0369C26.2403 15.3609 23.9128 14.4379 21.4668 14.4379C20.3213 14.4379 19.2004 14.6387 18.1354 15.0345C17.6502 15.215 17.403 15.7545 17.5834 16.2398C17.7638 16.7252 18.3033 16.9723 18.7888 16.7918C19.6441 16.4738 20.5451 16.3126 21.4669 16.3126C23.4333 16.3126 25.3043 17.0545 26.7351 18.4018C26.9161 18.5723 27.147 18.6568 27.3775 18.6568C27.6268 18.6568 27.8757 18.5579 28.0602 18.362C28.415 17.9851 28.3971 17.3917 28.0203 17.0369Z" fill="white"/>
<path d="M47.0626 24.2818H40.0102V22.3425C40.0102 21.3999 39.2432 20.6329 38.3005 20.6329H37.0421C36.3977 17.6376 34.9135 14.9095 32.7352 12.7311C29.039 9.0348 23.7577 7.3864 18.6078 8.3208C18.0984 8.41324 17.7604 8.90112 17.8528 9.41055C17.9452 9.91999 18.4332 10.2577 18.9426 10.1655C23.4875 9.34071 28.1482 10.7953 31.4095 14.0569C33.2357 15.8831 34.5094 18.1464 35.1196 20.633H30.0022C29.0595 20.633 28.2925 21.4 28.2925 22.3426V24.2819H21.2401C20.7224 24.2819 20.3027 24.7017 20.3027 25.2193V30.9699C20.3027 31.8498 20.6453 32.6507 21.2034 33.2479V38.0586C17.5464 37.9961 14.1312 36.5495 11.5241 33.9423C8.17772 30.5959 6.74409 25.8256 7.68919 21.1816C7.79241 20.6743 7.46484 20.1793 6.95756 20.0761C6.45009 19.9728 5.95528 20.3005 5.85206 20.8077C4.78125 26.0698 6.40594 31.4755 10.1983 35.2679C13.1164 38.186 17.0907 39.8611 21.2033 39.9319V43.3287C21.2033 43.4167 21.2092 43.5031 21.2197 43.5882C10.5302 43.4553 1.87472 34.72 1.87472 23.9996C1.87472 20.6473 2.72738 17.3706 4.34691 14.4668L7.50975 17.6446C7.68572 17.8214 7.92488 17.9208 8.17416 17.9208H14.0701L19.8501 23.7008C20.0332 23.8839 20.2731 23.9754 20.5129 23.9754C20.7528 23.9754 20.9928 23.8839 21.1757 23.7008C21.5418 23.3347 21.5418 22.7411 21.1757 22.375L15.3956 16.595V10.6991C15.3956 10.4501 15.2965 10.2113 15.1202 10.0354L11.9485 6.87152C14.8486 5.25743 18.1199 4.40768 21.4664 4.40768C29.071 4.40768 36.052 8.86765 39.2516 15.7701C39.4102 16.1123 39.7489 16.3135 40.1027 16.3135C40.2347 16.3135 40.3688 16.2854 40.4963 16.2263C40.966 16.0085 41.1703 15.4512 40.9526 14.9816C39.254 11.3171 36.5632 8.21177 33.1708 6.00152C29.6883 3.7323 25.6409 2.53296 21.4665 2.53296C17.6207 2.53296 13.8645 3.55755 10.5729 5.4993L7.87509 2.80774C7.60669 2.54008 7.20375 2.46021 6.85378 2.60552C6.50372 2.75074 6.27572 3.09237 6.27572 3.4713V8.78383H0.946781C0.567937 8.78383 0.2265 9.01174 0.0811875 9.36143C-0.064125 9.71121 0.0151875 10.114 0.282375 10.3825L2.97609 13.0889C1.02797 16.3849 0 20.147 0 23.9995C0 29.7334 2.23294 35.1242 6.28744 39.1787C10.3419 43.2333 15.7327 45.4661 21.4667 45.4661L44.9607 45.4672C46.1399 45.4672 47.0993 44.5079 47.0993 43.3286V33.2483C47.6805 32.6276 48 31.8226 48 30.9681V25.2191C48 24.7016 47.5803 24.2818 47.0626 24.2818ZM8.15044 5.73058L13.521 11.0878V14.7163L8.15044 9.33368V5.73058ZM6.82416 10.6587L12.1953 16.0456H8.56378L3.20231 10.6587H6.82416ZM30.1672 22.5077H38.1352V24.2818H30.1672V22.5077ZM45.2243 39.0921H39.0727C38.555 39.0921 38.1353 39.5119 38.1353 40.0295C38.1353 40.5471 38.555 40.9669 39.0727 40.9669H45.2243V43.3286C45.2243 43.4741 45.1061 43.5924 44.9607 43.5924H24.491C24.4842 43.5923 24.4777 43.5913 24.471 43.5913H23.3317C23.191 43.586 23.0781 43.4707 23.0781 43.3286V34.2606C23.2615 34.2919 23.4498 34.3091 23.642 34.3091H31.373C31.5392 35.695 32.7214 36.7729 34.1512 36.7729C35.5833 36.7729 36.767 35.6916 36.9303 34.3027L44.6583 34.3076C44.659 34.3076 44.6597 34.3076 44.6604 34.3076C44.8514 34.3076 45.0397 34.2907 45.2243 34.2595V39.0921H45.2243ZM33.2272 33.9739V32.3261H35.0755V33.9739C35.0755 34.4835 34.6609 34.8981 34.1513 34.8981C33.6418 34.8981 33.2272 34.4835 33.2272 33.9739ZM46.1252 30.9681C46.1252 31.3596 45.9728 31.7275 45.6958 32.0041C45.4192 32.2806 45.0516 32.4328 44.6604 32.4328C44.6602 32.4328 44.6599 32.4328 44.6595 32.4328L36.9502 32.428V31.5688C36.9502 30.9526 36.449 30.4512 35.8327 30.4512H32.4697C31.8535 30.4512 31.3522 30.9525 31.3522 31.5688V32.4343H23.642C22.8343 32.4343 22.1773 31.7772 22.1773 30.9697V26.1566H46.1251V30.9681H46.1252Z" fill="white"/>
<path d="M35.1426 39.3667C34.9682 39.1924 34.7264 39.092 34.4799 39.092C34.2324 39.092 33.9915 39.1923 33.8162 39.3667C33.6419 39.5411 33.5425 39.783 33.5425 40.0294C33.5425 40.276 33.6419 40.5178 33.8162 40.6921C33.9915 40.8664 34.2325 40.9669 34.4799 40.9669C34.7264 40.9669 34.9674 40.8665 35.1426 40.6921C35.317 40.5178 35.4173 40.2759 35.4173 40.0294C35.4173 39.783 35.317 39.5411 35.1426 39.3667Z" fill="white"/>
</svg>
