<svg width="18" height="17" viewBox="0 0 18 17" fill="none" xmlns="http://www.w3.org/2000/svg">
<path d="M2.93829 11.5717H0.587672C0.264516 11.5717 0 11.3125 0 10.9931V0.578404C0 0.259091 0.263356 -9.82285e-05 0.587672 -9.82285e-05H2.93829C3.26261 -9.82285e-05 3.52596 0.259126 3.52596 0.578404V10.9931C3.52596 11.3125 3.26141 11.5717 2.93829 11.5717Z" fill="#9A9A9A"/>
<path d="M16.5327 11.5718C16.438 11.5875 12.0067 11.5718 12.0067 11.5718L12.6256 13.2343C13.0527 14.3826 12.7762 16.1359 11.5912 16.7592C11.2054 16.9622 10.6663 17.0642 10.2316 16.9564C9.98238 16.8947 9.76332 16.7322 9.63275 16.5145C9.4826 16.2642 9.4981 15.9719 9.44463 15.6943C9.30903 14.9902 8.97111 14.3207 8.44781 13.8182C7.53543 12.9421 4.70117 10.4146 4.70117 10.4146V1.15711H14.4955C15.8171 1.15635 16.6832 2.60944 16.0313 3.74447C16.8083 4.23443 17.0741 5.26644 16.619 6.05882C17.396 6.54879 17.6617 7.5808 17.2067 8.37318C18.5473 9.21856 18.0991 11.3109 16.5327 11.5718Z" fill="#9A9A9A"/>
</svg>
