<svg width="36" height="36" viewBox="0 0 36 36" fill="none" xmlns="http://www.w3.org/2000/svg">
<path d="M29.6054 29.1686C29.3142 29.1686 29.0781 29.4048 29.0781 29.696V34.654C29.0781 34.8145 28.9474 34.9452 28.7869 34.9452H25.9521V24.5602C25.9521 24.269 25.716 24.0329 25.4248 24.0329C25.1335 24.0329 24.8974 24.269 24.8974 24.5602V34.9452H19.1891L20.8445 33.1241C21.0253 32.9252 21.1106 32.6417 21.0726 32.3657C21.0719 32.3603 21.071 32.355 21.0701 32.3497L19.4935 23.0356L19.9183 22.3961C20.1531 22.5629 20.334 22.7235 20.6733 22.7235C21.0184 22.7235 21.341 22.5304 21.4998 22.2124V22.2124L23.1627 18.8795L26.9508 20.3466C27.0879 20.4054 29.0779 21.3016 29.0779 23.668V27.235C29.0779 27.5261 29.314 27.7623 29.6053 27.7623C29.8965 27.7623 30.1326 27.5262 30.1326 27.235V23.668C30.1326 20.5501 27.4629 19.4167 27.3493 19.37C27.346 19.3686 27.3426 19.3672 27.3393 19.366L21.0345 16.9243V15.4456C22.0359 14.6668 22.7302 13.5124 22.9045 12.1953C23.4038 12.1601 23.8671 11.9737 24.2454 11.6483C24.7395 11.2234 25.023 10.605 25.023 9.95196C25.023 9.40999 24.8275 8.89249 24.479 8.48925V6.53576C24.4789 2.93196 21.547 0 17.9433 0C14.3395 0 11.4076 2.93196 11.4076 6.53576V8.54044C11.0554 8.9396 10.8638 9.43095 10.8638 9.95189C10.8638 10.6052 11.1472 11.2235 11.6414 11.6485C12.0195 11.9737 12.4825 12.1599 12.9816 12.1951C13.1574 13.5369 13.8719 14.7344 14.9586 15.5237V16.9243L8.66067 19.3659C8.65736 19.3672 8.65406 19.3685 8.65075 19.3698C8.53706 19.4166 5.86743 20.55 5.86743 23.6679V34.6539C5.86743 35.396 6.4712 35.9998 7.21335 35.9998H12.2377C12.5289 35.9998 12.765 35.7637 12.765 35.4724C12.765 35.1812 12.5289 34.9451 12.2377 34.9451H11.103V24.5602C11.103 24.269 10.8669 24.0329 10.5757 24.0329C10.2845 24.0329 10.0484 24.269 10.0484 24.5602V34.9452H7.21342C7.0529 34.9452 6.92226 34.8146 6.92226 34.6541V23.668C6.92226 21.2936 8.92567 20.3994 9.04872 20.3468L12.8339 18.8794L14.497 22.2124C14.6561 22.5311 14.9792 22.7235 15.3235 22.7235C15.6611 22.7235 15.8403 22.5654 16.0786 22.3961L16.5033 23.0356L14.9268 32.3497C14.9259 32.355 14.9252 32.3603 14.9244 32.3656C14.8863 32.6415 14.9716 32.9251 15.1525 33.1242L16.8078 34.9453H14.6988C14.4076 34.9453 14.1715 35.1814 14.1715 35.4727C14.1715 35.7639 14.4076 36 14.6988 36H28.787C29.5291 36 30.1329 35.3962 30.1329 34.6541V29.6961C30.1328 29.4048 29.8967 29.1686 29.6054 29.1686ZM22.1749 18.497L20.6245 21.6041C20.586 21.5768 19.7644 20.9931 18.7601 20.2799C19.1959 19.7419 18.686 20.3712 20.675 17.9162L22.1749 18.497ZM19.0578 21.7851L18.6557 22.3903H17.3407L16.9386 21.7851L17.9982 21.0326L19.0578 21.7851ZM16.0132 17.0944V16.1075C16.6539 16.3658 17.3386 16.4855 18.0073 16.4855C18.6987 16.4855 19.3767 16.3382 19.9797 16.0745V17.0987L17.9982 19.5446L16.0132 17.0944ZM23.9683 9.95196C23.9682 10.2974 23.8186 10.6243 23.5577 10.8487C23.3852 10.997 23.1769 11.0919 22.9487 11.129V8.77514C23.5548 8.87358 23.9683 9.37631 23.9683 9.95196ZM12.9381 11.129C12.3251 11.0295 11.9185 10.5227 11.9185 9.95189C11.9185 9.38812 12.3859 8.92927 12.9381 8.80165V11.129ZM12.9664 7.72706C12.7984 7.74633 12.6059 7.79182 12.4624 7.84062V6.53576C12.4624 3.51352 14.9211 1.05476 17.9433 1.05476C20.9656 1.05476 23.4243 3.51352 23.4243 6.53576V7.80441C23.271 7.75779 23.112 7.72699 22.9488 7.71251C22.9488 7.20366 22.9532 7.30181 21.2886 5.51215C20.9824 5.18323 20.476 5.11432 20.0907 5.36611C18.2534 6.56627 16.0122 7.1692 13.9443 7.0207C13.4907 6.98674 13.0776 7.2855 12.9664 7.72706ZM13.9928 11.5442V8.25412V8.0808C16.2692 8.21412 18.6558 7.53785 20.5838 6.30309C21.3473 7.1228 21.7607 7.55276 21.894 7.7163C21.894 8.13002 21.894 11.0706 21.894 11.5441C21.894 13.6849 20.1485 15.4307 18.0074 15.4307C15.6031 15.4308 13.9928 13.5657 13.9928 11.5442ZM15.372 21.6041L13.8217 18.497L15.3188 17.9172L17.2342 20.2814C16.2602 20.9731 15.4604 21.5414 15.372 21.6041ZM15.977 32.4634L17.5034 23.4449H18.4928L20.0192 32.4634L17.9982 34.6869L15.977 32.4634Z" fill="white"/>
</svg>
