<svg width="40" height="40" viewBox="0 0 40 40" fill="none" xmlns="http://www.w3.org/2000/svg">
<g clip-path="url(#clip0)">
<path d="M39.2188 13.7772C39.6502 13.7772 40 13.4274 40 12.996V7.85361C40 7.4222 39.6502 7.07236 39.2188 7.07236H35C34.305 7.07236 33.7151 7.52876 33.5127 8.15744H22.5195C22.5112 8.15329 22.5034 8.14861 22.4949 8.14478C20.3736 7.18095 18.0436 6.90728 15.757 7.35369L9.44625 8.58517H6.56C6.53336 7.74673 5.84477 7.07236 5 7.07236H0.78125C0.349766 7.07236 0 7.4222 0 7.85361V12.8761C0 13.3075 0.349766 13.6574 0.78125 13.6574C1.21273 13.6574 1.5625 13.3075 1.5625 12.8761V8.63486H5V23.4464H1.5625V19.2824C1.5625 18.851 1.21273 18.5011 0.78125 18.5011C0.349766 18.5011 0 18.851 0 19.2824V24.2277C0 24.6591 0.349766 25.0089 0.78125 25.0089H5C5.86156 25.0089 6.5625 24.308 6.5625 23.4464V23.4378C6.92102 23.5385 7.26023 23.7069 7.55633 23.9363L7.92109 24.2188C7.99039 24.8388 8.29055 25.4335 8.80891 25.8606C9.27094 26.2411 9.83031 26.4264 10.3867 26.4264C10.4427 26.4264 10.4985 26.4238 10.5543 26.4201C10.6336 27.052 10.9455 27.6205 11.4391 28.027C11.9011 28.4076 12.4605 28.593 13.017 28.5929C13.0729 28.5929 13.1287 28.5904 13.1845 28.5867C13.2638 29.2185 13.5757 29.787 14.0693 30.1937C14.5185 30.5636 15.0703 30.761 15.6448 30.761C15.7016 30.761 15.7587 30.7583 15.8159 30.7544C15.8927 31.3613 16.191 31.9415 16.6994 32.3603C17.1486 32.7302 17.7004 32.9276 18.2749 32.9276C18.3557 32.9276 18.437 32.9236 18.5185 32.9158C19.1792 32.852 19.7755 32.5346 20.1975 32.0223L20.8328 31.251C21.0198 31.0242 21.1592 30.7736 21.2531 30.5116C21.623 30.7091 22.0375 30.814 22.4675 30.814C22.4802 30.814 22.4928 30.8138 22.5055 30.8137C23.1965 30.8038 23.8423 30.5255 24.3239 30.0299C24.578 29.7684 24.7652 29.4665 24.8866 29.1454L25.1562 29.4074C25.6582 29.8952 26.3088 30.1381 26.9591 30.1381C27.634 30.1381 28.3084 29.8762 28.8148 29.3552C29.1023 29.0593 29.3042 28.7116 29.4219 28.3428C29.7834 28.522 30.1778 28.612 30.5723 28.612C31.2473 28.612 31.9216 28.3502 32.428 27.8292C32.9097 27.3335 33.1695 26.6801 33.1596 25.989C33.1498 25.298 32.8714 24.6522 32.3765 24.1713L31.8337 23.6424L33.4375 22.7767V23.4464C33.4375 24.308 34.1384 25.0089 35 25.0089H39.2188C39.6502 25.0089 40 24.6591 40 24.2277V19.048C40 18.6166 39.6502 18.2667 39.2188 18.2667C38.7873 18.2667 38.4375 18.6166 38.4375 19.048V23.4464H35V21.4717C35 21.4696 35 21.4675 35 21.4654V8.63486H38.4375V12.996C38.4375 13.4274 38.7873 13.7772 39.2188 13.7772ZM11.7362 23.7577L11.1009 24.5289C10.7775 24.9217 10.195 24.9781 9.80234 24.6545C9.40969 24.331 9.35336 23.7484 9.6768 23.3559L10.3122 22.5846C10.4688 22.3944 10.6902 22.2766 10.9355 22.2529C10.9657 22.2499 10.9959 22.2485 11.0259 22.2485C11.2391 22.2485 11.4441 22.3217 11.6107 22.4591C12.0034 22.7825 12.0596 23.3651 11.7362 23.7577ZM14.3663 25.9244L13.731 26.6956C13.4077 27.0882 12.825 27.1446 12.4324 26.8211C12.2422 26.6645 12.1245 26.4431 12.1007 26.1978C12.077 25.9525 12.1502 25.7127 12.307 25.5225L12.9423 24.7512C13.099 24.561 13.3203 24.4432 13.5656 24.4195C13.5959 24.4166 13.626 24.4151 13.656 24.4151C13.8692 24.4151 14.0742 24.4884 14.2409 24.6257C14.4311 24.7824 14.5488 25.0038 14.5726 25.2491C14.5963 25.4943 14.523 25.734 14.3663 25.9244ZM16.9966 28.0907L16.3612 28.862C16.2045 29.0523 15.9832 29.17 15.7379 29.1937C15.4923 29.2177 15.2527 29.1443 15.0626 28.9876C14.8723 28.8309 14.7545 28.6095 14.7308 28.3642C14.7071 28.119 14.7803 27.8792 14.937 27.6889L15.5723 26.9177C15.7545 26.6966 16.0188 26.5821 16.2852 26.5821C16.4918 26.5821 16.6995 26.651 16.871 26.7922C17.2637 27.1156 17.32 27.6981 16.9966 28.0907ZM19.6266 30.2574L18.9912 31.0287C18.8345 31.2189 18.6131 31.3367 18.3679 31.3604C18.1223 31.3845 17.8827 31.3109 17.6926 31.1542C17.2999 30.8307 17.2436 30.2481 17.567 29.8556L18.2024 29.0843C18.3591 28.8941 18.5805 28.7763 18.8258 28.7527C18.856 28.7497 18.8862 28.7482 18.9162 28.7482C19.1295 28.7482 19.3344 28.8215 19.5011 28.9588C19.6913 29.1155 19.8091 29.3368 19.8328 29.5821C19.8565 29.8274 19.7833 30.0672 19.6266 30.2574ZM31.3073 26.7399C30.9134 27.1452 30.2634 27.1545 29.8582 26.7607L27.268 24.2434C27.2651 24.2406 27.262 24.2383 27.2591 24.2355L24.7073 21.7556C24.398 21.4549 23.9033 21.462 23.6026 21.7713C23.3019 22.0808 23.3089 22.5754 23.6184 22.8761L27.6732 26.8168C28.0784 27.2106 28.0877 27.8607 27.6939 28.2659C27.3002 28.6713 26.6501 28.6805 26.2448 28.2867L22.1899 24.346C22.1818 24.3381 22.173 24.3313 22.1645 24.3238L20.2163 22.4305C19.907 22.1298 19.4123 22.1369 19.1116 22.4462C18.8109 22.7556 18.8179 23.2502 19.1273 23.551L23.1822 27.4917C23.5874 27.8855 23.5967 28.5356 23.2029 28.9408C23.0121 29.1371 22.7563 29.2474 22.4827 29.2513C22.2105 29.2562 21.9502 29.1522 21.7538 28.9614L20.6182 27.8578C20.5927 27.8331 20.5655 27.8112 20.5377 27.7906C20.5232 27.7781 20.5091 27.7651 20.4942 27.7528C19.9855 27.3338 19.3585 27.1521 18.7477 27.1933C18.6712 26.586 18.3728 26.0053 17.8641 25.5863C17.3558 25.1675 16.7292 24.9857 16.1188 25.0267C16.0395 24.3949 15.7277 23.8263 15.2341 23.4197C14.7405 23.0131 14.1224 22.8158 13.4874 22.859C13.4107 22.252 13.1123 21.6719 12.604 21.2531C12.0916 20.8311 11.4459 20.6342 10.7849 20.6977C10.1242 20.7615 9.52797 21.0788 9.10594 21.5912L8.47055 22.3624C8.41719 22.4272 8.36781 22.4939 8.32211 22.5623C7.79477 22.1974 7.19172 21.95 6.56227 21.8372V10.1477H9.52148C9.57172 10.1477 9.6218 10.1428 9.67117 10.1331L16.0561 8.8872C17.1394 8.67587 18.2339 8.65345 19.3037 8.81369C18.4954 9.1772 17.7503 9.68603 17.1022 10.3274L11.1871 16.1799C10.1145 17.2412 10.095 18.9872 11.1438 20.072C11.6795 20.6263 12.403 20.9164 13.1354 20.9163C13.6007 20.9163 14.0696 20.7992 14.4961 20.5582L20.6946 17.0562H22.8348L31.2865 25.291C31.4828 25.4817 31.593 25.7375 31.597 26.0113C31.601 26.2849 31.498 26.5437 31.3073 26.7399ZM33.4375 21.0011L30.6607 22.4996L25.0738 17.0561H25.6224C26.0539 17.0561 26.4037 16.7063 26.4037 16.2749C26.4037 15.8435 26.0539 15.4936 25.6224 15.4936H20.4893C20.3546 15.4936 20.2223 15.5284 20.105 15.5947L13.7276 19.1977C13.2495 19.468 12.649 19.3808 12.2673 18.986C11.8104 18.5134 11.8189 17.7528 12.2862 17.2906L18.2013 11.438C19.321 10.33 20.8053 9.71994 22.3805 9.71994H33.4375V21.0011Z" fill="white"/>
<path d="M39.7711 15.4886C39.6258 15.3425 39.4242 15.2597 39.2188 15.2597C39.0133 15.2597 38.8117 15.3425 38.6664 15.4886C38.5211 15.6339 38.4375 15.8348 38.4375 16.041C38.4375 16.2464 38.5211 16.448 38.6664 16.5933C38.8117 16.7385 39.0133 16.8222 39.2188 16.8222C39.4242 16.8222 39.6258 16.7386 39.7711 16.5933C39.9164 16.4472 40 16.2464 40 16.041C40 15.8347 39.9164 15.6339 39.7711 15.4886Z" fill="white"/>
<path d="M1.33359 15.4886C1.18828 15.3425 0.986719 15.2597 0.78125 15.2597C0.575781 15.2597 0.374219 15.3425 0.228906 15.4886C0.0835938 15.6339 0 15.8348 0 16.041C0 16.2464 0.0835938 16.4472 0.228906 16.5933C0.374219 16.7386 0.575781 16.8222 0.78125 16.8222C0.986719 16.8222 1.18828 16.7386 1.33359 16.5933C1.47891 16.4472 1.5625 16.2464 1.5625 16.041C1.5625 15.8347 1.47891 15.6339 1.33359 15.4886Z" fill="white"/>
</g>
<defs>
<clipPath id="clip0">
<rect width="40" height="40" fill="white"/>
</clipPath>
</defs>
</svg>
