<svg width="12" height="18" viewBox="0 0 12 18" fill="none" xmlns="http://www.w3.org/2000/svg">
<path fill-rule="evenodd" clip-rule="evenodd" d="M10.4411 3.81906C11.0675 6.37228 9.11954 8.43249 6.99545 8.87843C1.3578 10.0665 -1.07537 2.19109 4.94014 0.605057C7.69798 -0.120767 9.95047 1.82732 10.4411 3.81906ZM8.15817 4.21345C7.88027 3.24283 6.7898 2.35609 5.42968 2.71387C2.50401 3.47564 3.72472 7.46169 6.57427 6.7487C7.57854 6.49792 8.5131 5.45797 8.15817 4.21345ZM2.9225 9.59855C4.81186 10.6009 7.2894 10.5803 9.15511 9.55209C9.25408 9.49802 9.34887 9.43521 9.44467 9.37173C9.73607 9.17865 10.0368 8.97941 10.4922 9.00143C11.3064 9.04359 12.9518 10.3419 10.0572 11.6971C9.00307 12.1895 8.61597 12.2634 8.11157 12.3597C7.85538 12.4086 7.56893 12.4633 7.14944 12.5816C7.30762 12.8707 8.58779 14.005 9.51004 14.8222C9.83932 15.1139 10.123 15.3653 10.2936 15.5233C11.3726 16.5214 10.4544 17.6554 9.34802 17.5418C8.64542 17.4687 6.44023 15.297 6.04023 14.8505C5.64039 15.0364 5.10465 15.5614 4.55636 16.0988C3.87146 16.7701 3.16696 17.4606 2.68326 17.5332C1.53338 17.7061 0.574517 16.4912 1.74331 15.4416L4.85063 12.6014C4.68544 12.5199 4.31805 12.4479 3.95997 12.3778C3.70928 12.3287 3.46314 12.2805 3.29413 12.2305C-1.23541 10.8823 0.378772 8.88613 1.67617 9.00573C2.017 9.03775 2.33266 9.23648 2.61801 9.41614C2.72376 9.48271 2.82534 9.54667 2.9225 9.59855Z" fill="#EE8208"/>
</svg>
