<svg width="12" height="18" viewBox="0 0 12 18" fill="none" xmlns="http://www.w3.org/2000/svg">
<path fill-rule="evenodd" clip-rule="evenodd" d="M10.4412 3.8193C11.0676 6.37252 9.1196 8.43274 6.99551 8.87867C1.35786 10.0667 -1.07531 2.19133 4.9402 0.605301C7.69804 -0.120522 9.95053 1.82756 10.4412 3.8193ZM8.15823 4.2137C7.88033 3.24308 6.78986 2.35634 5.42974 2.71412C2.50407 3.47589 3.72478 7.46193 6.57433 6.74895C7.5786 6.49816 8.51316 5.45821 8.15823 4.2137ZM2.9225 9.59879C4.81186 10.6012 7.2894 10.5805 9.15511 9.55233C9.25408 9.49826 9.34887 9.43545 9.44466 9.37198C9.73607 9.17889 10.0368 8.97966 10.4922 9.00167C11.3064 9.04383 12.9518 10.3422 10.0572 11.6973C9.00308 12.1897 8.61598 12.2636 8.11158 12.36C7.85539 12.4089 7.56894 12.4636 7.14944 12.5818C7.30762 12.8709 8.58776 14.0052 9.51001 14.8224C9.8393 15.1142 10.123 15.3655 10.2936 15.5235C11.3726 16.5216 10.4544 17.6556 9.34802 17.542C8.64542 17.4689 6.44023 15.2972 6.04023 14.8507C5.64039 15.0366 5.10465 15.5617 4.55635 16.0991C3.87145 16.7703 3.16695 17.4608 2.68326 17.5334C1.53338 17.7064 0.574517 16.4915 1.74331 15.4418L4.85063 12.6016C4.68544 12.5201 4.31808 12.4482 3.96002 12.378C3.7093 12.3289 3.46315 12.2807 3.29413 12.2308C-1.23541 10.8825 0.378772 8.88638 1.67617 9.00597C2.017 9.03799 2.33267 9.23673 2.61802 9.41638C2.72376 9.48296 2.82534 9.54691 2.9225 9.59879Z" fill="white"/>
</svg>
