<svg width="40" height="40" viewBox="0 0 40 40" fill="none" xmlns="http://www.w3.org/2000/svg">
<g clip-path="url(#clip0)">
<path d="M35.8333 8.0832C33.2323 8.0832 31.2584 6.56102 29.1683 4.94969C26.7671 3.09836 24.0456 1 20 1C15.9543 1 13.2329 3.09836 10.8315 4.94969C8.74153 6.56102 6.76755 8.0832 4.16661 8.0832C3.70653 8.0832 3.33325 8.45633 3.33325 8.91656C3.33325 18.6466 4.54505 25.1255 7.26247 29.9239C9.96075 34.6886 13.9774 37.6518 19.5833 40.8884C19.7122 40.9628 19.856 41 19.9999 41C20.1438 41 20.2876 40.9627 20.4165 40.8884C26.0225 37.6518 30.039 34.6887 32.7375 29.9239C35.4547 25.1255 36.6665 18.6466 36.6665 8.91656C36.6666 8.45633 36.2933 8.0832 35.8333 8.0832ZM20 39.2031C9.94794 33.3416 5.13427 28.292 5.00278 9.70805C7.74841 9.43141 9.83013 7.82633 11.8493 6.26953C14.1466 4.49836 16.5222 2.66664 20 2.66664C23.4776 2.66664 25.8532 4.4982 28.1506 6.26953C30.1697 7.82641 32.2515 9.43133 34.9972 9.70805C34.8657 28.292 30.052 33.3416 20 39.2031Z" fill="white"/>
<path d="M10.1537 10.5174C9.93921 10.1101 9.43531 9.95386 9.02805 10.1683C8.92453 10.2228 8.81953 10.2764 8.71422 10.3283C8.30133 10.5316 8.13141 11.0311 8.33461 11.4441C8.47961 11.7387 8.77539 11.9094 9.08289 11.9094C9.2064 11.9094 9.33203 11.8819 9.45039 11.8236C9.56937 11.765 9.68773 11.7046 9.80453 11.6432C10.2119 11.4285 10.3681 10.9246 10.1537 10.5174Z" fill="white"/>
<path d="M32.155 17.052C32.1805 17.0543 32.2061 17.0554 32.2313 17.0554C32.6574 17.0554 33.0211 16.7303 33.0602 16.2975C33.07 16.1911 33.0792 16.0842 33.0882 15.9778C33.1271 15.5191 32.7868 15.1159 32.3281 15.077C31.8701 15.0376 31.4662 15.3784 31.4275 15.8371C31.4187 15.9401 31.4098 16.0434 31.4003 16.1465C31.3588 16.605 31.6966 17.0104 32.155 17.052Z" fill="white"/>
<path d="M11.8011 10.2288C11.97 10.2288 12.1406 10.1775 12.2881 10.0709C12.7709 9.72235 13.2411 9.36446 13.6957 9.01813C15.8228 7.3986 17.6598 5.99985 20.0001 5.99985C20.4603 5.99985 20.8334 5.62672 20.8334 5.16649C20.8334 4.70641 20.4603 4.33313 20.0001 4.33313C17.0974 4.33313 14.9546 5.96461 12.686 7.69211C12.2396 8.03211 11.7781 8.38352 11.3125 8.71961C10.9392 8.98915 10.8553 9.50993 11.1247 9.88305C11.2876 10.1088 11.5425 10.2288 11.8011 10.2288Z" fill="white"/>
<path d="M19.9999 35.3195C17.8672 34.0046 15.2914 32.2388 13.3599 29.9618C13.0623 29.6107 12.5364 29.5677 12.1854 29.8652C11.8343 30.1628 11.7911 30.6888 12.0888 31.0399C14.3077 33.6562 17.2513 35.6042 19.5677 37.009C19.5719 37.0114 19.5764 37.0132 19.5806 37.0156C19.6006 37.0272 19.6211 37.0373 19.642 37.0472C19.6553 37.0535 19.6686 37.0606 19.6821 37.0661C19.7009 37.0738 19.7199 37.0798 19.7392 37.0861C19.7553 37.0914 19.7711 37.0975 19.7874 37.1018C19.8048 37.1064 19.8225 37.1092 19.8401 37.1126C19.8578 37.1162 19.8756 37.1206 19.8935 37.1228C19.9188 37.1261 19.9441 37.1269 19.9697 37.1279C19.9795 37.1282 19.9892 37.1299 19.999 37.1299C19.9993 37.1299 19.9996 37.1299 19.9999 37.1299C20.0002 37.1299 20.0006 37.1299 20.0007 37.1299C20.0105 37.1299 20.0203 37.1282 20.03 37.1279C20.0556 37.1269 20.0811 37.1262 20.1064 37.1228C20.1241 37.1206 20.1415 37.1162 20.1591 37.1128C20.177 37.1093 20.1949 37.1066 20.2125 37.1018C20.2286 37.0976 20.2445 37.0916 20.2603 37.0864C20.2795 37.08 20.2988 37.074 20.3177 37.0662C20.3312 37.0607 20.3443 37.0537 20.3577 37.0473C20.3785 37.0374 20.3992 37.0273 20.419 37.0157C20.4235 37.0133 20.4278 37.0115 20.432 37.0091C22.7484 35.6043 25.6919 33.6564 27.9109 31.0398C30.4412 28.0553 32.0361 24.0166 32.7866 18.6928C32.8508 18.237 32.5335 17.8157 32.0778 17.7514C31.6215 17.6873 31.2005 18.0045 31.1362 18.4602C30.431 23.4627 28.9603 27.225 26.6397 29.962C24.7085 32.2388 22.1329 34.0046 19.9999 35.3195Z" fill="white"/>
<path d="M25.3784 11.4254L16.6851 20.1187L14.6223 18.0556C14.112 17.5455 13.4319 17.2646 12.707 17.2646C11.9819 17.2646 11.3017 17.5455 10.7913 18.0558C9.73555 19.1121 9.73555 20.8305 10.7916 21.8866L14.7757 25.8702L14.8102 25.9041C14.8153 25.9091 14.8205 25.9139 14.8255 25.9188L14.8605 25.9514C14.8667 25.9571 14.8729 25.9628 14.8793 25.9683L14.9152 25.9997C14.9206 26.0046 14.9262 26.0093 14.9319 26.014L14.9682 26.0441C14.9723 26.0477 14.9766 26.0509 14.9807 26.0543L15.0177 26.0839C15.0245 26.0893 15.0313 26.0947 15.0384 26.0998L15.0762 26.1284C15.0816 26.1323 15.0868 26.1362 15.0922 26.1399L15.1302 26.1671C15.1359 26.1712 15.1416 26.1751 15.1473 26.1789L15.1861 26.2052C15.1923 26.2092 15.1984 26.2134 15.2047 26.2173L15.2439 26.2424C15.2492 26.2457 15.2545 26.2491 15.2598 26.2522L15.2996 26.2763C15.3049 26.2795 15.3102 26.2827 15.3155 26.2859L15.3555 26.3087C15.3634 26.3134 15.3712 26.3177 15.3791 26.322L15.4198 26.3436C15.4241 26.3459 15.4284 26.3482 15.4327 26.3502L15.4737 26.3713C15.4809 26.375 15.4882 26.3786 15.4955 26.3822L15.537 26.4019C15.5428 26.4046 15.5487 26.4072 15.5545 26.4101L15.5757 26.4195C15.5905 26.4267 15.6056 26.4334 15.6211 26.4397L15.6634 26.457C15.6673 26.4586 15.6711 26.46 15.675 26.4616L15.7175 26.4781C15.7238 26.4807 15.7303 26.4832 15.7368 26.4856L15.78 26.5013C15.7868 26.5037 15.7938 26.5062 15.8009 26.5085L15.8217 26.5155C15.8359 26.5208 15.8502 26.5255 15.8649 26.5298L15.9083 26.543C15.9145 26.5448 15.9206 26.5468 15.9269 26.5484L15.9706 26.5606C15.9766 26.5623 15.9827 26.5639 15.9889 26.5655L16.033 26.5768C16.0388 26.5783 16.0449 26.5797 16.0509 26.5813L16.0949 26.5913C16.1011 26.5928 16.1074 26.5942 16.1138 26.5955L16.1579 26.6046C16.1664 26.6064 16.1748 26.6079 16.1833 26.6095L16.2051 26.6133C16.218 26.6159 16.2312 26.6184 16.2447 26.6203L16.2891 26.6271C16.2958 26.6283 16.3025 26.6291 16.3091 26.63L16.3539 26.6357C16.3602 26.6366 16.3667 26.6373 16.373 26.638L16.3942 26.6402C16.4082 26.642 16.4222 26.6437 16.4364 26.6448L16.4815 26.6486C16.49 26.6493 16.4984 26.6499 16.5069 26.6502L16.528 26.6514C16.5419 26.6526 16.5559 26.6534 16.5698 26.6537L16.6149 26.6552C16.6195 26.6553 16.6238 26.6553 16.6284 26.6555L16.6732 26.6561C16.6773 26.6561 16.6812 26.6561 16.6853 26.6561C16.6894 26.6561 16.6933 26.6561 16.6974 26.6561L16.7425 26.6555C16.7471 26.6553 16.7514 26.6553 16.756 26.6552L16.8012 26.6537C16.8152 26.6534 16.8292 26.6525 16.843 26.6514L16.8642 26.6502C16.8729 26.6498 16.8815 26.6492 16.8902 26.6485L16.9349 26.6448C16.9489 26.6436 16.9627 26.6422 16.9766 26.6403L16.9977 26.638C17.0039 26.6374 17.0101 26.6367 17.0162 26.6359L17.0613 26.6301C17.0683 26.6292 17.0752 26.6283 17.0821 26.6272L17.1266 26.6204C17.1402 26.6183 17.1539 26.6158 17.1673 26.613L17.1886 26.6093C17.197 26.608 17.2052 26.6064 17.2134 26.6045L17.2573 26.5955C17.263 26.5943 17.2687 26.5932 17.2744 26.5919L17.3188 26.5816C17.3259 26.58 17.3328 26.5784 17.3398 26.5766L17.3836 26.5653C17.3895 26.5638 17.3952 26.5623 17.4009 26.5605L17.4445 26.5484C17.4505 26.5467 17.4566 26.5449 17.4625 26.5431L17.5059 26.5299C17.5196 26.5257 17.5333 26.5212 17.5466 26.5164L17.5681 26.5094C17.5758 26.5068 17.5834 26.5041 17.591 26.5014L17.6342 26.4857C17.6407 26.4833 17.6472 26.4808 17.6535 26.4782L17.696 26.4616C17.7008 26.4598 17.7055 26.4579 17.7102 26.4559L17.7522 26.4387C17.7657 26.4332 17.779 26.4271 17.7921 26.4209L17.8138 26.4113C17.8208 26.4083 17.8277 26.405 17.8348 26.4017L17.8761 26.382C17.8816 26.3795 17.8872 26.3766 17.8927 26.3738L17.9337 26.3531C17.9469 26.3465 17.96 26.3395 17.9727 26.3321L17.9941 26.3207C18.0001 26.3174 18.0062 26.3141 18.012 26.3106L18.0523 26.2877C18.0588 26.284 18.0651 26.2802 18.0714 26.2763L18.1112 26.2523C18.1173 26.2485 18.1235 26.2446 18.1298 26.2407L18.1688 26.2156C18.1733 26.2129 18.1776 26.2099 18.1818 26.207L18.2209 26.1809C18.2275 26.1762 18.2342 26.1718 18.2407 26.167L18.2788 26.1398C18.2852 26.1352 18.2917 26.1306 18.298 26.1257L18.3356 26.0972C18.3402 26.0936 18.3447 26.0902 18.3493 26.0866L18.3862 26.0573C18.396 26.0497 18.4055 26.0416 18.4151 26.0336L18.4361 26.0162C18.4434 26.0102 18.4508 26.004 18.4577 25.9977L18.4934 25.9662C18.4982 25.9621 18.5027 25.958 18.5073 25.9538L18.5424 25.9213C18.5477 25.9165 18.5527 25.9116 18.5577 25.9067L18.5923 25.8732C18.5999 25.8659 18.6073 25.8584 18.6145 25.8509L29.2098 15.2557C30.2656 14.1994 30.2653 12.4809 29.2091 11.4252C28.6991 10.9152 28.0189 10.6342 27.294 10.6342C26.5689 10.6343 25.8887 10.9152 25.3784 11.4254ZM28.0308 14.0774L17.4219 24.686C17.4202 24.688 17.4181 24.6898 17.4164 24.6915L17.3389 24.7605C17.338 24.7612 17.3372 24.7619 17.3362 24.7627L17.2371 24.8329L17.0963 24.9059C17.096 24.9061 17.0955 24.9063 17.0952 24.9064L17.0019 24.9405C17.0009 24.9409 16.9999 24.9412 16.999 24.9416L16.8551 24.9752C16.8534 24.9755 16.8516 24.9759 16.8498 24.9762L16.7777 24.9848C16.776 24.9852 16.7741 24.9853 16.7725 24.9855L16.7316 24.988C16.7299 24.988 16.7282 24.9881 16.7264 24.9883L16.6851 24.9891L16.6589 24.9887L16.6441 24.9884C16.6423 24.9882 16.6405 24.988 16.6387 24.988L16.5971 24.9856C16.5956 24.9855 16.5941 24.9853 16.5923 24.9849L16.5206 24.9763C16.5185 24.976 16.5166 24.9755 16.5145 24.9752L16.371 24.9416C16.3709 24.9416 16.3705 24.9415 16.3703 24.9415L16.2885 24.9119L16.132 24.8321L15.9879 24.7237L11.9699 20.7079C11.5638 20.3016 11.5638 19.6403 11.9699 19.2341C12.1652 19.0387 12.427 18.9312 12.707 18.9312C12.9867 18.9312 13.2484 19.0387 13.4438 19.2339L16.0959 21.8862C16.2521 22.0427 16.4641 22.1304 16.685 22.1304C16.9059 22.1304 17.1179 22.0427 17.2744 21.8864L26.5572 12.6038C26.7525 12.4085 27.0142 12.3009 27.2938 12.3009C27.5736 12.3009 27.8352 12.4085 28.0307 12.604C28.4367 13.0102 28.4369 13.6712 28.0308 14.0774Z" fill="white"/>
</g>
<defs>
<clipPath id="clip0">
<rect width="40" height="40" fill="white"/>
</clipPath>
</defs>
</svg>
